<?xml version="1.0" encoding="iso-8859-1"?>
<!-- Generator: Adobe Illustrator 19.0.0, SVG Export Plug-In . SVG Version: 6.00 Build 0)  -->
<svg version="1.1" id="Layer_1" xmlns="http://www.w3.org/2000/svg" xmlns:xlink="http://www.w3.org/1999/xlink" x="0px" y="0px"
	 viewBox="0 0 512 512" style="enable-background:new 0 0 512 512;" xml:space="preserve">
<g>
	<path style="fill:#211E48;" d="M344.515,501.666H43.519C19.523,501.666,0,482.143,0,458.145V154.199
		c0-23.997,19.523-43.519,43.519-43.519h144.202c7.907,0,14.317,6.411,14.317,14.317s-6.41,14.317-14.317,14.317H43.519
		c-8.209,0-14.886,6.679-14.886,14.886v303.948c0,8.208,6.679,14.886,14.886,14.886h300.995c7.906,0,14.317,6.411,14.317,14.317
		S352.422,501.666,344.515,501.666z"/>
	<path style="fill:#211E48;" d="M468.481,501.666h-53.686c-7.906,0-14.317-6.411-14.317-14.317s6.411-14.317,14.317-14.317h53.686
		c8.208,0,14.886-6.679,14.886-14.886V154.199c0-8.208-6.679-14.886-14.886-14.886H324.279c-7.906,0-14.317-6.411-14.317-14.317
		s6.411-14.317,14.317-14.317h144.202c23.997,0,43.52,19.523,43.52,43.519v303.948C512,482.143,492.478,501.666,468.481,501.666z"/>
	<path style="fill:#211E48;" d="M270.865,249.988h-29.728c-23.297,0-42.252-18.954-42.252-42.251v-63.953h-1.707
		c-10.053,0-19.123-5.569-23.671-14.534s-3.685-19.574,2.253-27.685L234.582,21.2c4.979-6.803,12.987-10.866,21.418-10.866
		s16.438,4.062,21.419,10.865l58.822,80.366c5.937,8.11,6.802,18.719,2.253,27.685c-4.548,8.965-13.619,14.534-23.671,14.534h-1.708
		v63.953C313.114,231.035,294.161,249.988,270.865,249.988z M201.296,115.151h11.903c7.907,0,14.317,6.411,14.317,14.317v78.27
		c0,7.509,6.11,13.618,13.619,13.618h29.728c7.509,0,13.618-6.109,13.618-13.618v-78.27c0-7.906,6.411-14.317,14.317-14.317h11.903
		L256,40.416L201.296,115.151z"/>
</g>
<path style="fill:#B0DACC;" d="M465.068,129.685H298.799v78.052c0,15.428-12.507,27.934-27.934,27.934h-29.728
	c-15.428,0-27.934-12.507-27.934-27.934v-78.052H46.931c-24.44,0-34.918,31.027-15.485,45.844L240.514,334.94
	c9.145,6.974,21.823,6.974,30.968,0L480.549,175.53C499.987,160.712,489.507,129.685,465.068,129.685z"/>
<path style="fill:#211E48;" d="M256,354.486c-8.68,0-17.261-2.898-24.163-8.16L22.766,186.914
	C8.949,176.38,3.612,158.934,9.173,142.47s20.381-27.103,37.76-27.103h166.27c7.907,0,14.317,6.411,14.317,14.317v78.052
	c0,7.509,6.109,13.619,13.618,13.619h29.728c7.509,0,13.618-6.11,13.618-13.619v-78.051c0-7.906,6.411-14.317,14.317-14.317h166.27
	c17.377,0,32.199,10.639,37.76,27.103c5.559,16.464,0.222,33.91-13.596,44.444L280.165,346.326
	C273.263,351.589,264.679,354.486,256,354.486z M46.933,144.002c-7.473,0-10.026,5.841-10.631,7.631
	c-0.606,1.79-2.116,7.983,3.827,12.513l209.069,159.412c1.971,1.503,4.324,2.296,6.803,2.296c2.478,0,4.832-0.795,6.803-2.296
	l209.068-159.412c5.943-4.531,4.434-10.723,3.828-12.513c-0.604-1.79-3.158-7.631-10.631-7.631H313.114v63.736
	c0,23.297-18.954,42.252-42.251,42.252h-29.728c-23.297,0-42.251-18.954-42.251-42.252v-63.736H46.933z"/>
<g>
</g>
<g>
</g>
<g>
</g>
<g>
</g>
<g>
</g>
<g>
</g>
<g>
</g>
<g>
</g>
<g>
</g>
<g>
</g>
<g>
</g>
<g>
</g>
<g>
</g>
<g>
</g>
<g>
</g>
</svg>
